# xmcd CD database file
#
# Track frame offsets:
#	150
#	24770
#	45165
#	61913
#	85219
#	106334
#	121542
#	136872
#	154661
#	168341
#	194459
#
# Disc length: 2844 seconds
#
# Revision: 0
# Processed by: cddbd v1.5.2PL0 Copyright (c) Steve Scherf et al.
# Submitted via: CDex 1.51
#
DISCID=770b1a0b
DTITLE=Red Pellini and Emanuele Basentini - "Red and Boss" Gang
DYEAR=1900
DGENRE=Jazz
TTITLE0=Fidgety feet
TTITLE1=When
TTITLE2=Blue river
TTITLE3=China Boy
TTITLE4=Singin the blues
TTITLE5=Clarinet marmalade
TTITLE6=Dardanella
TTITLE7=From monday on
TTITLE8=My pretty girl
TTITLE9=Happy feet
TTITLE10=I'll be a friend with pleasure
EXTD=
EXTT0=
EXTT1=
EXTT2=
EXTT3=
EXTT4=
EXTT5=
EXTT6=
EXTT7=
EXTT8=
EXTT9=
EXTT10=
PLAYORDER=
